<svg xmlns="http://www.w3.org/2000/svg"
     viewBox="0 0 354.53 74.08">
    <defs>
        <style>.cls-1{fill:#d50000;}</style>
    </defs>
    <g id="Main">
        <g id="Opt_1.2.3.3_small" data-name="Opt 1.2.3.3 small">
            <g id="Opt_1" data-name="Opt 1">
                <polygon class="cls-1" points="37.43 73.85 36.91 74.08 98.1 74.08 86.07 52.07 37.43 73.85"/>
                <polygon class="cls-1" points="55.07 0 0 74.08 22.01 74.08 27.14 62.58 55.07 0"/>
                <polygon class="cls-1" points="101.93 74.08 125.61 74.08 103.46 44.28 92.46 49.21 101.93 74.08"/>
                <polygon class="cls-1" points="102.23 42.64 77.08 8.81 90.91 45.12 102.23 42.64"/>
                <polygon class="cls-1" points="48.73 54.35 83.2 46.8 65.5 14.4 48.73 54.35"/>
            </g>
            <path class="cls-1"
                  d="M257.05,521.21l13.16-29.56h4.45L288,521.21h-5.4l-3.55-8.3,2.15,1.47H263.73l2.23-1.47-3.55,8.3Zm15.34-23.77-5.81,14-1.08-1.3h13.86l-.86,1.3-5.94-14Z"
                  transform="translate(-112.64 -462.96)"/>
            <path class="cls-1"
                  d="M293.31,521.21V491.65H298l10.68,24.45h-1.28l10.69-24.45h4.62v29.56h-4.83V499.28h1.48l-9.77,21.93h-3.18l-9.77-21.93h1.52v21.93Z"
                  transform="translate(-112.64 -462.96)"/>
            <path class="cls-1"
                  d="M330.27,506.41a18,18,0,0,1,1.67-8.05,12.24,12.24,0,0,1,4.8-5.26,15.76,15.76,0,0,1,14.89,0,12.54,12.54,0,0,1,4.85,5.26,17.58,17.58,0,0,1,1.71,8,17.84,17.84,0,0,1-1.71,8.07,12.58,12.58,0,0,1-4.85,5.3,15.57,15.57,0,0,1-14.87,0,12.47,12.47,0,0,1-4.8-5.3A17.86,17.86,0,0,1,330.27,506.41Zm5.56,0c0,3.33.71,5.93,2.11,7.8a7.34,7.34,0,0,0,6.27,2.81,7.45,7.45,0,0,0,6.23-2.81q2.18-2.81,2.18-7.8t-2.16-7.8a7.49,7.49,0,0,0-6.25-2.77,7.39,7.39,0,0,0-6.27,2.77C336.54,500.46,335.83,503.06,335.83,506.41Z"
                  transform="translate(-112.64 -462.96)"/>
            <path class="cls-1"
                  d="M365.74,521.21V491.65H376.3a18.51,18.51,0,0,1,8.43,1.74,11.82,11.82,0,0,1,5.22,5,18.78,18.78,0,0,1,0,16,11.85,11.85,0,0,1-5.22,5.07,18.38,18.38,0,0,1-8.43,1.76Zm5.32-4.48H376c3.52,0,6.13-.86,7.84-2.56s2.55-4.29,2.55-7.76-.85-6.09-2.55-7.78-4.32-2.53-7.84-2.53h-4.91Z"
                  transform="translate(-112.64 -462.96)"/>
            <path class="cls-1" d="M399.23,521.21V491.65h5.33v29.56Z" transform="translate(-112.64 -462.96)"/>
            <path class="cls-1"
                  d="M425.14,521.63q-6.22,0-9.26-3.16t-3-9.38V491.65h5.32v17.4c0,2.63.55,4.62,1.67,6s2.88,2,5.3,2a6.56,6.56,0,0,0,5.22-2q1.75-2,1.75-6v-17.4h5.24v17.44q0,6.21-3.07,9.38T425.14,521.63Z"
                  transform="translate(-112.64 -462.96)"/>
            <path class="cls-1"
                  d="M455.75,521.63a22.07,22.07,0,0,1-6.46-.9,16,16,0,0,1-5.05-2.49l1.65-4.24a16.91,16.91,0,0,0,2.93,1.7,15.45,15.45,0,0,0,3.25,1,18.84,18.84,0,0,0,3.68.35,7.88,7.88,0,0,0,4.7-1.09,3.39,3.39,0,0,0,1.44-2.85,2.91,2.91,0,0,0-1-2.37,8.68,8.68,0,0,0-3.55-1.36l-4.66-1a11.69,11.69,0,0,1-6-2.8,7.14,7.14,0,0,1-2-5.29,8.13,8.13,0,0,1,1.45-4.82,9.41,9.41,0,0,1,4-3.19,15.13,15.13,0,0,1,6.06-1.13,17.71,17.71,0,0,1,5.74.9,11.86,11.86,0,0,1,4.41,2.58l-1.65,4a12.07,12.07,0,0,0-3.88-2.25,14.18,14.18,0,0,0-4.7-.73,7.81,7.81,0,0,0-4.56,1.15,3.67,3.67,0,0,0-1.63,3.17,3.19,3.19,0,0,0,1,2.47,7.41,7.41,0,0,0,3.45,1.43l4.62.92a12.17,12.17,0,0,1,6.1,2.75,6.79,6.79,0,0,1,2,5.13,7.9,7.9,0,0,1-1.4,4.64,9.2,9.2,0,0,1-4,3.1A15.18,15.18,0,0,1,455.75,521.63Z"
                  transform="translate(-112.64 -462.96)"/>
        </g>
    </g>
</svg>
