<svg id="Final" xmlns="http://www.w3.org/2000/svg" viewBox="0 0 806.22 88.62"><defs><style>.cls-1{fill:#FFFFFF;}</style></defs><g id="ExtraBold"><g id="Side_Title" data-name="Side Title"><g id="Opt_1" data-name="Opt 1"><polygon class="cls-1" points="43.54 87.13 42.93 87.4 114.1 87.4 100.12 61.79 43.54 87.13"/><polygon class="cls-1" points="64.05 1.23 0 87.4 25.6 87.4 31.57 74.03 64.05 1.23"/><polygon class="cls-1" points="118.56 87.4 146.1 87.4 120.33 52.74 107.54 58.47 118.56 87.4"/><polygon class="cls-1" points="118.91 50.83 89.66 11.47 105.73 53.71 118.91 50.83"/><polygon class="cls-1" points="56.69 64.44 96.77 55.67 76.18 17.98 56.69 64.44"/></g><path class="cls-1" d="M356,467.12l-39,86.18h18.76l8-18.7h40.07l8,18.7h18.88l-39.2-86.18Zm7.57,19.93h.49l13.81,32.76H350.12Z" transform="translate(-132.91 -465.9)"/><polygon class="cls-1" points="335.44 64.17 307.9 1.22 291.55 1.22 291.55 87.4 308.51 87.4 308.51 40.17 329.79 87.4 340.61 87.4 362.26 39.59 362.26 87.4 379.21 87.4 379.21 1.22 362.86 1.22 335.44 64.17"/><path class="cls-1" d="M597,471.34q-9.32-5.43-22.19-5.44t-22.24,5.44a36.57,36.57,0,0,0-14.31,15.4q-5.06,10-5.05,23.41t5.05,23.35A36.76,36.76,0,0,0,552.59,549q9.31,5.51,22.18,5.5T597,549a37.16,37.16,0,0,0,14.49-15.52q5.12-10,5.11-23.47t-5.17-23.29A37.35,37.35,0,0,0,597,471.34ZM591.25,531q-5.65,7.51-16.48,7.52T558.3,531q-5.53-7.51-5.53-20.84t5.53-20.84q5.54-7.4,16.47-7.4t16.54,7.4q5.6,7.4,5.59,20.84T591.25,531Z" transform="translate(-132.91 -465.9)"/><path class="cls-1" d="M694.72,472.26q-10.15-5.14-25.07-5.14H637.3V553.3h32.35q14.91,0,25.07-5.2a35.63,35.63,0,0,0,15.46-14.85q5.28-9.64,5.29-23.1T710.18,487A35.37,35.37,0,0,0,694.72,472.26Zm-5.05,58.55q-6.92,6.84-21.1,6.84H656.06v-55h12.51q14.19,0,21.1,6.72t6.92,20.78Q696.59,524,689.67,530.81Z" transform="translate(-132.91 -465.9)"/><rect class="cls-1" x="603.12" y="1.22" width="18.76" height="86.18"/><path class="cls-1" d="M832.59,517.24q0,10.51-4.51,15.89t-13.53,5.38q-9.62,0-13.95-5.38t-4.32-15.89V467.12H777.52v50.12q0,18.59,9.14,27.93t27.89,9.35q18.29,0,27.36-9.35T851,517.24V467.12h-18.4Z" transform="translate(-132.91 -465.9)"/><path class="cls-1" d="M933.3,512.6q-5.84-5.75-17.62-8.19l-14.07-2.82q-6.37-1.21-8.89-3.54a7.76,7.76,0,0,1-2.53-6,8.63,8.63,0,0,1,4.15-7.7q4.15-2.69,12-2.69a43.82,43.82,0,0,1,13.53,2A33.56,33.56,0,0,1,931,489.74l5.41-14.18a35.66,35.66,0,0,0-12.87-7.09,53.66,53.66,0,0,0-16.83-2.57,46.42,46.42,0,0,0-18.34,3.36,28.2,28.2,0,0,0-12.27,9.54,24.1,24.1,0,0,0-4.39,14.36q0,9.78,5.83,15.71t17.5,8.37l14,2.93q6.74,1.35,9.14,3.3a7,7,0,0,1,2.4,5.75,8.14,8.14,0,0,1-3.66,6.91q-3.68,2.63-12.33,2.62a52.68,52.68,0,0,1-10.64-1,50.11,50.11,0,0,1-9.62-2.93,52.5,52.5,0,0,1-8.6-4.58L870.11,545a47.79,47.79,0,0,0,15.15,7,70.78,70.78,0,0,0,19.24,2.5,46.27,46.27,0,0,0,18.22-3.3,27.81,27.81,0,0,0,12.08-9.35,23.41,23.41,0,0,0,4.33-14Q939.13,518.35,933.3,512.6Z" transform="translate(-132.91 -465.9)"/></g></g></svg>
